# Blender v2.75 (sub 0) OBJ File: 'Mambo.blend'
# www.blender.org
o PuroB1_Circle.010
v -0.136463 0.314766 0.136464
v -0.136463 -0.049639 0.136464
v 0.000001 -0.049639 0.192989
v 0.136464 -0.049639 0.136464
v 0.000001 0.312004 0.192989
v 0.136464 0.250643 0.136464
v -0.136463 0.430484 0.136464
v 0.000001 0.430484 0.192989
v 0.136464 0.430484 0.136464
v 0.000001 0.253396 0.192989
v -0.140544 0.269715 2.569561
v -0.011118 0.312173 2.600917
v 0.118308 0.354631 2.569561
v 0.142959 0.279485 2.569561
v 0.013533 0.237028 2.600917
v -0.115893 0.194570 2.569561
v -0.208192 0.164291 1.376851
v 0.013533 0.237028 1.453126
v 0.238893 0.298683 1.376851
v -0.232844 0.239437 1.376851
v -0.011118 0.312173 1.453126
v 0.210607 0.384909 1.376851
v -0.103389 0.209117 0.218142
v -0.117285 0.267868 0.218142
v -0.010663 0.311019 0.274667
v 0.095959 0.354171 0.218142
v 0.003233 0.252269 0.274667
v 0.113764 0.278895 0.218142
v 0.192989 -0.049639 -0.000000
v 0.192989 0.253396 -0.000000
v -0.192988 0.312004 0.000000
v -0.136463 0.261042 -0.136464
v -0.192988 -0.049639 0.000000
v -0.136463 -0.049639 -0.136464
v 0.000001 -0.049639 -0.192989
v 0.136464 -0.049639 -0.136464
v 0.192989 0.430484 -0.000000
v 0.000001 0.312004 -0.192989
v 0.136464 0.301597 -0.136464
v -0.192988 0.430484 0.000000
v -0.136463 0.430484 -0.136464
v 0.000001 0.430484 -0.192989
v 0.136464 0.430484 -0.136464
v 0.000001 0.253396 -0.192989
v -0.120165 0.351915 -2.569561
v 0.010207 0.312459 -2.600917
v 0.140580 0.273003 -2.569561
v 0.117671 0.197308 -2.569561
v -0.012701 0.236764 -2.600917
v -0.143073 0.276220 -2.569561
v -0.236048 0.304358 -1.376851
v -0.012701 0.236764 -1.453126
v 0.207268 0.158008 -1.376851
v -0.213139 0.380053 -1.376851
v 0.010207 0.312459 -1.453126
v 0.233554 0.244865 -1.376851
v -0.109548 0.293044 -0.218142
v -0.097276 0.352435 -0.218142
v 0.009805 0.311358 -0.274667
v 0.116887 0.270282 -0.218142
v -0.002466 0.251968 -0.274667
v 0.101164 0.194186 -0.218142
v -0.118143 0.474140 0.118143
v 0.000001 0.474140 0.167080
v 0.118144 0.474140 0.118143
v 0.167081 0.474140 -0.000000
v -0.167079 0.474140 0.000000
v -0.118143 0.474140 -0.118143
v 0.000001 0.474140 -0.167080
v 0.118144 0.474140 -0.118143
v -0.073194 0.474140 0.073195
v 0.000001 0.474140 0.103514
v 0.073196 0.474140 0.073195
v 0.103514 0.474140 -0.000000
v -0.103513 0.474140 0.000000
v -0.073194 0.474140 -0.073195
v 0.000001 0.474140 -0.103514
v 0.073196 0.474140 -0.073195
v -0.073194 0.401817 0.073195
v 0.000001 0.401817 0.103514
v 0.073196 0.401817 0.073195
v 0.103514 0.401817 -0.000000
v -0.103513 0.401817 0.000000
v -0.073194 0.401817 -0.073195
v 0.000001 0.401817 -0.103514
v 0.073196 0.401817 -0.073195
vt 0.956910 0.950507
vt 0.955915 0.977569
vt 0.955915 0.923445
vt 0.953513 0.912236
vt 0.974572 0.948722
vt 0.973467 0.984634
vt 0.990752 0.970006
vt 0.991858 0.948722
vt 0.990752 0.927438
vt 0.991858 0.952462
vt 0.990752 0.973746
vt 0.973467 0.912259
vt 0.990752 0.931178
vt 0.974572 0.952462
vt 0.973467 0.915999
vt 0.973467 0.988925
vt 0.957353 0.969182
vt 0.958348 0.952271
vt 0.957353 0.935359
vt 0.957353 0.931993
vt 0.958348 0.948904
vt 0.957353 0.964868
vt 0.953513 0.988779
vt 0.950116 0.950507
vt 0.951111 0.977569
vt 0.951111 0.923445
vt 0.932454 0.948722
vt 0.915168 0.948722
vt 0.916274 0.970006
vt 0.916274 0.927438
vt 0.916274 0.931178
vt 0.915168 0.952462
vt 0.916274 0.973746
vt 0.933559 0.912259
vt 0.932454 0.952462
vt 0.933559 0.988925
vt 0.933559 0.984634
vt 0.949673 0.969182
vt 0.948678 0.952271
vt 0.933559 0.915999
vt 0.949673 0.935359
vt 0.948678 0.948904
vt 0.949673 0.931993
vt 0.949673 0.964868
vt 0.951433 0.973936
vt 0.953513 0.983641
vt 0.950572 0.950507
vt 0.951433 0.927078
vt 0.953513 0.917373
vt 0.955593 0.973936
vt 0.956454 0.950507
vt 0.955593 0.927078
vn 0.382700 0.000000 0.923900
vn -0.382700 0.000000 0.923900
vn -0.923900 0.000000 0.382700
vn 0.265700 -0.964000 0.005900
vn 0.311700 -0.950200 0.000000
vn -0.213200 -0.069900 0.974500
vn 0.213200 0.069900 0.974500
vn -0.947000 -0.310700 0.081200
vn -0.311700 0.950200 0.000000
vn 0.947000 0.310700 0.081200
vn 0.945200 0.310100 -0.101800
vn -0.312000 0.950100 -0.001100
vn -0.368700 0.929400 -0.014000
vn -0.968600 -0.229100 -0.096500
vn 0.316300 -0.948500 -0.015000
vn 0.230200 -0.973100 -0.008200
vn 0.387800 -0.921300 -0.028100
vn -0.199800 0.828700 0.522800
vn -0.393100 0.918600 -0.040200
vn 0.923900 0.000000 0.382700
vn 0.128800 -0.925600 0.355900
vn 0.955900 0.226100 0.187500
vn 0.382700 0.000000 -0.923900
vn -0.382700 0.000000 -0.923900
vn -0.923900 0.000000 -0.382700
vn -0.289700 -0.957100 0.000000
vn -0.214700 0.065000 -0.974500
vn 0.214700 -0.065000 -0.974500
vn -0.954000 0.288700 -0.081200
vn 0.289700 0.957100 0.000000
vn 0.954000 -0.288700 -0.081200
vn 0.952100 -0.288200 0.102200
vn 0.289400 0.957200 0.001000
vn 0.290000 0.957000 0.001000
vn -0.952100 0.288200 0.102100
vn -0.285000 -0.958400 0.014800
vn -0.341700 -0.939700 0.015100
vn -0.345600 -0.938000 0.026800
vn -0.951500 0.196600 -0.236500
vn 0.375200 0.926200 0.037700
vn 0.231900 0.888400 -0.396200
vn 0.923900 0.000000 -0.382700
vn -0.499300 -0.865900 0.030200
vn 0.967400 -0.199900 -0.155200
vn 0.810100 0.480800 -0.335600
vn 0.335600 0.480800 -0.810100
vn -0.335600 0.480800 -0.810100
vn -0.810100 0.480800 -0.335600
vn 0.810100 0.480800 0.335600
vn 0.335600 0.480800 0.810100
vn -0.335600 0.480800 0.810100
vn -0.810100 0.480800 0.335600
vn 0.000000 1.000000 -0.000000
vn 0.072700 0.647100 0.758900
vn -0.358700 0.932800 -0.035600
vn -0.057300 0.604500 -0.794600
vn 0.342400 0.938900 0.033700
vn 0.967400 0.228800 -0.108400
vn -0.369700 0.929100 0.011900
vn -0.311400 0.950300 -0.001100
vn -0.945200 -0.310100 -0.101900
vn 0.376000 -0.926600 -0.001800
vn 0.259200 -0.965700 -0.014800
vn -0.968700 -0.229100 0.095900
vn 0.223400 -0.974500 -0.022300
vn -0.335300 -0.942100 -0.005900
vn 0.974800 -0.201400 0.095600
vn 0.351300 0.936200 0.014800
vn 0.352200 0.935800 -0.012900
vn -0.973600 0.201200 0.108300
vn -0.344900 -0.938200 0.028500
vn -0.480000 -0.877100 -0.016600
vn -0.133400 -0.571800 0.809500
vn -0.222600 -0.880600 -0.418400
vn 0.061900 -0.598300 -0.798900
s off
f 5/1/1 6/2/1 9/2/1
f 5/1/2 8/1/2 7/3/2
f 1/3/3 7/3/3 40/4/3
f 18/5/4 19/6/4 14/7/4
f 18/5/5 15/8/5 16/9/5
f 16/9/6 15/8/6 12/10/6
f 15/8/7 14/7/7 13/11/7
f 17/12/8 16/9/8 11/13/8
f 21/14/9 20/15/9 11/13/9
f 21/14/9 12/10/9 13/11/9
f 22/16/10 13/11/10 14/7/10
f 26/17/11 22/16/11 19/6/11
f 25/18/12 21/14/12 22/16/12
f 25/18/13 24/19/13 20/15/13
f 24/19/14 23/20/14 17/12/14
f 27/21/15 18/5/15 17/12/15
f 27/21/16 28/22/16 19/6/16
f 10/1/17 27/21/17 23/20/17
f 5/1/18 1/3/18 24/19/18
f 5/1/19 25/18/19 26/17/19
f 29/23/20 30/23/20 6/2/20
f 3/1/1 4/2/1 6/2/1
f 10/1/21 6/2/21 28/22/21
f 6/2/22 26/17/22 28/22/22
f 30/23/20 37/23/20 9/2/20
f 38/24/23 42/24/23 43/25/23
f 41/26/24 42/24/24 38/24/24
f 40/4/25 41/26/25 32/26/25
f 52/27/26 49/28/26 48/29/26
f 50/30/26 49/28/26 52/27/26
f 50/30/27 45/31/27 46/32/27
f 49/28/28 46/32/28 47/33/28
f 45/31/29 50/30/29 51/34/29
f 55/35/30 46/32/30 45/31/30
f 47/33/30 46/32/30 55/35/30
f 48/29/31 47/33/31 56/36/31
f 53/37/32 56/36/32 60/38/32
f 56/36/33 55/35/33 59/39/33
f 59/39/34 55/35/34 54/40/34
f 58/41/35 54/40/35 51/34/35
f 51/34/36 52/27/36 61/42/36
f 61/42/37 52/27/37 53/37/37
f 57/43/38 61/42/38 44/24/38
f 32/26/39 58/41/39 57/43/39
f 38/24/40 59/39/40 58/41/40
f 39/25/41 60/38/41 38/24/41
f 39/25/42 30/23/42 29/23/42
f 35/24/23 44/24/23 39/25/23
f 44/24/43 61/42/43 62/44/43
f 39/25/44 62/44/44 60/38/44
f 43/25/42 37/23/42 30/23/42
f 43/25/45 70/45/45 66/46/45
f 42/24/46 69/47/46 70/45/46
f 41/26/47 68/48/47 69/47/47
f 40/4/48 67/49/48 68/48/48
f 9/2/49 37/23/49 66/46/49
f 9/2/50 65/50/50 64/51/50
f 8/1/51 64/51/51 63/52/51
f 40/4/52 7/3/52 63/52/52
f 65/50/53 73/50/53 72/51/53
f 32/26/54 38/24/54 58/41/54
f 25/18/55 5/1/55 24/19/55
f 6/2/56 5/1/56 26/17/56
f 60/38/57 59/39/57 38/24/57
f 8/1/1 5/1/1 9/2/1
f 1/3/2 5/1/2 7/3/2
f 31/4/3 1/3/3 40/4/3
f 15/8/5 18/5/5 14/7/5
f 17/12/5 18/5/5 16/9/5
f 11/13/6 16/9/6 12/10/6
f 12/10/7 15/8/7 13/11/7
f 20/15/8 17/12/8 11/13/8
f 12/10/9 21/14/9 11/13/9
f 22/16/9 21/14/9 13/11/9
f 19/6/10 22/16/10 14/7/10
f 28/22/58 26/17/58 19/6/58
f 26/17/59 25/18/59 22/16/59
f 21/14/60 25/18/60 20/15/60
f 20/15/61 24/19/61 17/12/61
f 23/20/62 27/21/62 17/12/62
f 18/5/63 27/21/63 19/6/63
f 24/19/64 1/3/64 23/20/64
f 4/2/20 29/23/20 6/2/20
f 10/1/1 3/1/1 6/2/1
f 27/21/65 10/1/65 28/22/65
f 6/2/20 30/23/20 9/2/20
f 39/25/23 38/24/23 43/25/23
f 32/26/24 41/26/24 38/24/24
f 31/4/25 40/4/25 32/26/25
f 53/37/66 52/27/66 48/29/66
f 51/34/26 50/30/26 52/27/26
f 49/28/27 50/30/27 46/32/27
f 48/29/28 49/28/28 47/33/28
f 54/40/29 45/31/29 51/34/29
f 54/40/30 55/35/30 45/31/30
f 56/36/30 47/33/30 55/35/30
f 53/37/31 48/29/31 56/36/31
f 62/44/67 53/37/67 60/38/67
f 60/38/68 56/36/68 59/39/68
f 58/41/69 59/39/69 54/40/69
f 57/43/70 58/41/70 51/34/70
f 57/43/71 51/34/71 61/42/71
f 62/44/72 61/42/72 53/37/72
f 36/25/42 39/25/42 29/23/42
f 36/25/23 35/24/23 39/25/23
f 39/25/73 44/24/73 62/44/73
f 39/25/42 43/25/42 30/23/42
f 37/23/45 43/25/45 66/46/45
f 43/25/46 42/24/46 70/45/46
f 42/24/47 41/26/47 69/47/47
f 41/26/48 40/4/48 68/48/48
f 65/50/49 9/2/49 66/46/49
f 8/1/50 9/2/50 64/51/50
f 7/3/51 8/1/51 63/52/51
f 67/49/52 40/4/52 63/52/52
f 66/46/53 74/46/53 73/50/53
f 67/49/53 75/49/53 76/48/53
f 68/48/53 76/48/53 77/47/53
f 70/45/53 69/47/53 77/47/53
f 70/45/53 78/45/53 74/46/53
f 64/51/53 72/51/53 71/52/53
f 67/49/53 63/52/53 71/52/53
f 78/45/3 86/45/3 82/46/3
f 77/47/2 85/47/2 86/45/2
f 76/48/1 84/48/1 85/47/1
f 71/52/42 79/52/42 83/49/42
f 72/51/23 80/51/23 79/52/23
f 73/50/24 81/50/24 80/51/24
f 74/46/25 82/46/25 81/50/25
f 75/49/20 83/49/20 84/48/20
f 83/52/53 79/51/53 81/46/53
f 32/26/24 44/24/24 35/24/24
f 33/4/25 31/4/25 32/26/25
f 34/26/24 32/26/24 35/24/24
f 32/26/74 57/43/74 44/24/74
f 34/26/25 33/4/25 32/26/25
f 3/1/2 10/1/2 1/3/2
f 33/4/3 2/3/3 1/3/3
f 2/3/2 3/1/2 1/3/2
f 1/3/75 10/1/75 23/20/75
f 31/4/3 33/4/3 1/3/3
f 64/51/53 65/50/53 72/51/53
f 65/50/53 66/46/53 73/50/53
f 68/48/53 67/49/53 76/48/53
f 69/47/53 68/48/53 77/47/53
f 78/45/53 70/45/53 77/47/53
f 66/46/53 70/45/53 74/46/53
f 63/52/53 64/51/53 71/52/53
f 75/49/53 67/49/53 71/52/53
f 74/46/3 78/45/3 82/46/3
f 78/45/2 77/47/2 86/45/2
f 77/47/1 76/48/1 85/47/1
f 75/49/42 71/52/42 83/49/42
f 71/52/23 72/51/23 79/52/23
f 72/51/24 73/50/24 80/51/24
f 73/50/25 74/46/25 81/50/25
f 76/48/20 75/49/20 84/48/20
f 85/48/53 84/49/53 83/52/53
f 83/52/53 86/47/53 85/48/53
f 86/47/53 81/46/53 82/45/53
f 81/46/53 79/51/53 80/50/53
f 81/46/53 86/47/53 83/52/53
