# Blender v2.75 (sub 0) OBJ File: 'cargo_drone.blend'
# www.blender.org
v -0.067015 0.358435 -0.061789
v -0.067015 0.585345 -0.061789
v -0.035225 0.358435 -0.077812
v -0.035225 0.585345 -0.077812
v 0.000277 0.358435 -0.080450
v 0.000277 0.585345 -0.080450
v 0.034086 0.358435 -0.069302
v 0.034086 0.585345 -0.069302
v 0.061055 0.358435 -0.046064
v 0.061055 0.585345 -0.046064
v 0.077078 0.358435 -0.014274
v 0.077078 0.585345 -0.014274
v 0.079716 0.358435 0.021228
v 0.079716 0.585345 0.021228
v 0.068568 0.358435 0.055037
v 0.068568 0.585345 0.055037
v 0.045330 0.358435 0.082006
v 0.045330 0.585345 0.082006
v 0.013540 0.358435 0.098029
v 0.013540 0.585345 0.098029
v -0.021962 0.358435 0.100667
v -0.021962 0.585345 0.100667
v -0.055771 0.358435 0.089519
v -0.055771 0.585345 0.089519
v -0.082740 0.358435 0.066281
v -0.082740 0.585345 0.066281
v -0.098763 0.358435 0.034491
v -0.098763 0.585345 0.034491
v -0.101401 0.358435 -0.001011
v -0.101401 0.585345 -0.001011
v -0.090253 0.358435 -0.034820
v -0.090253 0.585345 -0.034820
v -0.056703 0.713089 -0.048590
v -0.030749 0.713089 -0.061671
v -0.001765 0.713089 -0.063825
v 0.025837 0.713089 -0.054723
v 0.047855 0.713089 -0.035751
v 0.060937 0.713089 -0.009798
v 0.063091 0.713089 0.019186
v 0.053989 0.713089 0.046789
v 0.035017 0.713089 0.068807
v 0.009064 0.713089 0.081888
v -0.019921 0.713089 0.084042
v -0.047523 0.713089 0.074940
v -0.069541 0.713089 0.055968
v -0.082622 0.713089 0.030015
v -0.084776 0.713089 0.001031
v -0.075674 0.713089 -0.026571
v 0.056385 0.632203 0.045430
v 0.053626 0.639965 0.041899
v -0.026092 0.554859 -0.060136
v -0.028851 0.562620 -0.063667
v 1.101216 0.592931 -0.760575
v 1.101216 0.601893 -0.760575
v 1.005980 0.592931 -0.882473
v 1.005980 0.601893 -0.882473
v 0.283567 0.561509 -0.378233
v 0.627506 0.583719 -0.652454
v 0.629416 0.566124 -0.650010
v 0.287329 0.544720 -0.373418
v 0.784560 0.628699 -0.451434
v 0.433426 0.650103 -0.186422
v 0.437188 0.633315 -0.181607
v 0.786470 0.611105 -0.448990
v 0.021819 0.626324 0.001187
v -0.005674 0.600542 -0.034002
v 0.005715 0.568500 -0.019424
v 0.033208 0.594281 0.015765
v 1.037725 0.615912 -0.841840
v 1.069471 0.615912 -0.801208
v 1.069471 0.578912 -0.801208
v 1.037725 0.578912 -0.841840
v 0.676870 0.626232 -0.589272
v 0.729221 0.641226 -0.522265
v 0.327636 0.617300 -0.321828
v 0.377589 0.646831 -0.257891
v 0.343166 0.547993 -0.301950
v 0.393119 0.577524 -0.238013
v 0.684755 0.553598 -0.579179
v 0.737106 0.568591 -0.512173
v -0.078070 0.632203 -0.025213
v -0.075311 0.639965 -0.021682
v 0.004407 0.554859 0.080353
v 0.007166 0.562620 0.083884
v -1.122902 0.592931 0.780793
v -1.122902 0.601893 0.780793
v -1.027665 0.592931 0.902690
v -1.027665 0.601893 0.902690
v -0.305252 0.561509 0.398450
v -0.649191 0.583719 0.672671
v -0.651101 0.566124 0.670227
v -0.309014 0.544720 0.393635
v -0.806245 0.628699 0.471652
v -0.455111 0.650103 0.206640
v -0.458873 0.633315 0.201825
v -0.808155 0.611105 0.469207
v -0.043504 0.626324 0.019030
v -0.016011 0.600542 0.054219
v -0.027401 0.568500 0.039641
v -0.054893 0.594281 0.004452
v -1.059411 0.615912 0.862057
v -1.091156 0.615912 0.821425
v -1.091156 0.578912 0.821425
v -1.059411 0.578912 0.862057
v -0.698555 0.626232 0.609489
v -0.750906 0.641226 0.542482
v -0.349321 0.617300 0.342045
v -0.399274 0.646831 0.278108
v -0.364851 0.547993 0.322167
v -0.414804 0.577524 0.258230
v -0.706440 0.553598 0.599396
v -0.758791 0.568591 0.532390
vn -0.450100 0.000000 -0.893000
vn -0.074100 0.000000 -0.997300
vn 0.313200 0.000000 -0.949700
vn 0.652800 0.000000 -0.757600
vn 0.893000 0.000000 -0.450100
vn 0.997300 0.000000 -0.074100
vn 0.949700 0.000000 0.313200
vn 0.757600 0.000000 0.652800
vn 0.450100 0.000000 0.893000
vn 0.074100 0.000000 0.997300
vn -0.313200 0.000000 0.949700
vn -0.652800 0.000000 0.757600
vn -0.893000 0.000000 0.450100
vn -0.997300 0.000000 0.074100
vn -0.446400 0.127600 -0.885700
vn -0.757600 0.000000 -0.652800
vn -0.949700 0.000000 -0.313200
vn 0.000000 1.000000 0.000000
vn -0.885700 0.127600 0.446400
vn 0.989100 0.127600 -0.073500
vn -0.310600 0.127600 0.941900
vn -0.751400 0.127600 -0.647400
vn 0.647400 0.127600 -0.751400
vn 0.446400 0.127600 0.885700
vn -0.989100 0.127600 0.073500
vn -0.073500 0.127600 -0.989100
vn 0.941900 0.127600 0.310600
vn -0.647400 0.127600 0.751400
vn 0.885700 0.127600 -0.446400
vn 0.073500 0.127600 0.989100
vn -0.941900 0.127600 -0.310600
vn 0.310600 0.127600 -0.941900
vn 0.751400 0.127600 0.647400
vn -0.788000 -0.000000 0.615700
vn -0.519400 0.000000 -0.854600
vn 0.788000 0.000000 -0.615700
vn 0.437400 0.496600 0.749700
vn -0.025300 -0.987600 -0.154900
vn -0.436800 0.786500 -0.436600
vn -0.273700 0.883300 -0.380500
vn -0.414200 0.787900 -0.455700
vn 0.007500 -0.999200 0.039900
vn -0.048800 -0.989400 -0.136900
vn 0.695500 0.172400 0.697500
vn 0.579300 0.342000 0.739900
vn -0.668000 -0.339600 -0.662200
vn -0.607100 -0.173600 -0.775500
vn 0.277800 -0.883400 0.377400
vn 0.119300 -0.984700 0.127100
vn 0.387600 -0.703200 0.596100
vn 0.185100 -0.939200 0.289200
vn -0.011600 0.999300 -0.036700
vn -0.223000 0.939600 -0.259800
vn 0.209700 0.963100 0.168400
vn -0.081500 0.984300 -0.156600
vn -0.185800 0.966200 -0.178600
vn -0.352600 0.864600 -0.358000
vn 0.190100 -0.964300 0.184200
vn 0.045300 -0.998300 -0.035400
vn 0.519400 0.000000 0.854600
vn -0.437400 0.496600 -0.749700
vn 0.025300 -0.987600 0.154900
vn 0.436800 0.786500 0.436600
vn 0.273700 0.883300 0.380500
vn 0.414200 0.787900 0.455700
vn -0.007500 -0.999200 -0.039900
vn 0.048800 -0.989400 0.136900
vn -0.695500 0.172400 -0.697500
vn -0.579300 0.342000 -0.739900
vn 0.668000 -0.339600 0.662200
vn 0.607100 -0.173700 0.775500
vn -0.277800 -0.883400 -0.377400
vn -0.119300 -0.984700 -0.127100
vn -0.387600 -0.703200 -0.596100
vn -0.185100 -0.939200 -0.289200
vn 0.011600 0.999300 0.036700
vn 0.223000 0.939600 0.259800
vn -0.209700 0.963100 -0.168400
vn 0.081500 0.984300 0.156600
vn 0.185800 0.966200 0.178600
vn 0.352600 0.864600 0.358000
vn -0.190100 -0.964300 -0.184200
vn -0.045300 -0.998300 0.035400
vn -0.508500 -0.172400 -0.843600
vn 0.480900 0.339600 0.808300
vn -0.112700 -0.963100 -0.244300
vn -0.484600 0.703200 -0.520300
vn -0.132700 0.964300 -0.229000
vn -0.298900 0.883400 -0.360900
vn 0.128400 -0.966200 0.223500
vn 0.032800 -0.999300 0.020200
vn 0.703500 0.000000 0.710700
vn 0.605600 0.173700 0.776600
vn -0.621600 -0.496600 -0.605800
vn -0.577800 -0.342000 -0.741100
vn 0.342000 -0.787900 0.512100
vn 0.198100 -0.939600 0.279200
vn 0.318000 -0.786500 0.529500
vn 0.262000 -0.864600 0.428700
vn 0.121000 0.989400 0.080400
vn -0.094500 0.984700 -0.146500
vn 0.144200 0.987600 0.062000
vn 0.045300 0.998300 -0.035400
vn -0.036900 0.999200 -0.016900
vn -0.235900 0.939200 -0.249500
vn 0.303000 -0.883300 0.357600
vn 0.132200 -0.984300 0.116900
vn 0.508500 -0.172400 0.843600
vn -0.480900 0.339600 -0.808300
vn 0.112700 -0.963100 0.244300
vn 0.484600 0.703200 0.520300
vn 0.132700 0.964300 0.229000
vn 0.298900 0.883400 0.360900
vn -0.128400 -0.966200 -0.223500
vn -0.032800 -0.999300 -0.020200
vn -0.703500 0.000000 -0.710700
vn -0.605600 0.173600 -0.776600
vn 0.621600 -0.496600 0.605800
vn 0.577800 -0.342000 0.741100
vn -0.342000 -0.787900 -0.512100
vn -0.198100 -0.939600 -0.279200
vn -0.318000 -0.786500 -0.529500
vn -0.262000 -0.864600 -0.428700
vn -0.121000 0.989400 -0.080400
vn 0.094500 0.984700 0.146500
vn -0.144200 0.987600 -0.062000
vn -0.045300 0.998300 0.035400
vn 0.036900 0.999200 0.016900
vn 0.235900 0.939200 0.249500
vn -0.303000 -0.883300 -0.357600
vn -0.132200 -0.984300 -0.116900
s off
f 2//1 4//1 3//1
f 4//2 6//2 5//2
f 6//3 8//3 7//3
f 8//4 10//4 9//4
f 10//5 12//5 11//5
f 12//6 14//6 13//6
f 14//7 16//7 15//7
f 16//8 18//8 17//8
f 18//9 20//9 19//9
f 20//10 22//10 21//10
f 22//11 24//11 23//11
f 24//12 26//12 25//12
f 26//13 28//13 27//13
f 28//14 30//14 29//14
f 4//15 2//15 33//15
f 32//16 2//16 1//16
f 30//17 32//17 31//17
f 34//18 48//18 42//18
f 28//19 26//19 45//19
f 12//20 38//20 39//20
f 24//21 22//21 43//21
f 32//22 48//22 33//22
f 10//23 8//23 36//23
f 20//24 18//24 41//24
f 30//25 28//25 46//25
f 6//26 4//26 34//26
f 14//27 39//27 40//27
f 24//28 44//28 45//28
f 10//29 37//29 38//29
f 22//30 20//30 42//30
f 30//31 47//31 48//31
f 6//32 35//32 36//32
f 16//33 40//33 41//33
f 52//34 51//34 67//34
f 58//35 56//35 55//35
f 54//36 53//36 71//36
f 62//37 50//37 49//37
f 79//38 59//38 55//38
f 75//39 57//39 52//39
f 56//40 58//40 73//40
f 58//41 57//41 75//41
f 51//42 60//42 77//42
f 60//43 59//43 79//43
f 54//44 61//44 64//44
f 61//45 62//45 63//45
f 52//46 57//46 60//46
f 57//47 58//47 59//47
f 78//48 80//48 64//48
f 77//49 79//49 80//49
f 49//50 68//50 78//50
f 67//51 77//51 78//51
f 74//52 76//52 62//52
f 73//53 75//53 76//53
f 54//54 70//54 74//54
f 69//55 73//55 74//55
f 76//56 65//56 50//56
f 75//57 66//57 65//57
f 80//58 71//58 53//58
f 79//59 72//59 71//59
f 56//36 69//36 72//36
f 70//36 71//36 72//36
f 65//34 68//34 49//34
f 66//34 67//34 68//34
f 84//36 83//36 99//36
f 90//60 88//60 87//60
f 86//34 85//34 103//34
f 94//61 82//61 81//61
f 111//62 91//62 87//62
f 107//63 89//63 84//63
f 88//64 90//64 105//64
f 90//65 89//65 107//65
f 83//66 92//66 109//66
f 92//67 91//67 111//67
f 86//68 93//68 96//68
f 93//69 94//69 95//69
f 84//70 89//70 92//70
f 89//71 90//71 91//71
f 110//72 112//72 96//72
f 109//73 111//73 112//73
f 81//74 100//74 110//74
f 99//75 109//75 110//75
f 106//76 108//76 94//76
f 105//77 107//77 108//77
f 86//78 102//78 106//78
f 101//79 105//79 106//79
f 108//80 97//80 82//80
f 107//81 98//81 97//81
f 112//82 103//82 85//82
f 111//83 104//83 103//83
f 88//34 101//34 104//34
f 102//34 103//34 104//34
f 97//36 100//36 81//36
f 97//36 98//36 99//36
f 1//1 2//1 3//1
f 3//2 4//2 5//2
f 5//3 6//3 7//3
f 7//4 8//4 9//4
f 9//5 10//5 11//5
f 11//6 12//6 13//6
f 13//7 14//7 15//7
f 15//8 16//8 17//8
f 17//9 18//9 19//9
f 19//10 20//10 21//10
f 21//11 22//11 23//11
f 23//12 24//12 25//12
f 25//13 26//13 27//13
f 27//14 28//14 29//14
f 34//15 4//15 33//15
f 31//16 32//16 1//16
f 29//17 30//17 31//17
f 36//18 35//18 34//18
f 34//18 37//18 36//18
f 42//18 39//18 38//18
f 42//18 41//18 40//18
f 46//18 43//18 42//18
f 46//18 45//18 44//18
f 48//18 47//18 46//18
f 34//18 33//18 48//18
f 38//18 37//18 34//18
f 42//18 40//18 39//18
f 46//18 44//18 43//18
f 42//18 48//18 46//18
f 42//18 38//18 34//18
f 46//19 28//19 45//19
f 14//20 12//20 39//20
f 44//21 24//21 43//21
f 2//22 32//22 33//22
f 37//23 10//23 36//23
f 42//24 20//24 41//24
f 47//25 30//25 46//25
f 35//26 6//26 34//26
f 16//27 14//27 40//27
f 26//28 24//28 45//28
f 12//29 10//29 38//29
f 43//30 22//30 42//30
f 32//31 30//31 48//31
f 8//32 6//32 36//32
f 18//33 16//33 41//33
f 66//34 52//34 67//34
f 59//84 58//84 55//84
f 70//36 54//36 71//36
f 63//85 62//85 49//85
f 72//86 79//86 55//86
f 66//87 75//87 52//87
f 69//88 56//88 73//88
f 73//89 58//89 75//89
f 67//90 51//90 77//90
f 77//91 60//91 79//91
f 53//92 54//92 64//92
f 64//93 61//93 63//93
f 51//94 52//94 60//94
f 60//95 57//95 59//95
f 63//96 78//96 64//96
f 78//97 77//97 80//97
f 63//98 49//98 78//98
f 68//99 67//99 78//99
f 61//100 74//100 62//100
f 74//101 73//101 76//101
f 61//102 54//102 74//102
f 70//103 69//103 74//103
f 62//104 76//104 50//104
f 76//105 75//105 65//105
f 64//106 80//106 53//106
f 80//107 79//107 71//107
f 55//36 56//36 72//36
f 69//36 70//36 72//36
f 50//34 65//34 49//34
f 65//34 66//34 68//34
f 98//36 84//36 99//36
f 91//108 90//108 87//108
f 102//34 86//34 103//34
f 95//109 94//109 81//109
f 104//110 111//110 87//110
f 98//111 107//111 84//111
f 101//112 88//112 105//112
f 105//113 90//113 107//113
f 99//114 83//114 109//114
f 109//115 92//115 111//115
f 85//116 86//116 96//116
f 96//117 93//117 95//117
f 83//118 84//118 92//118
f 92//119 89//119 91//119
f 95//120 110//120 96//120
f 110//121 109//121 112//121
f 95//122 81//122 110//122
f 100//123 99//123 110//123
f 93//124 106//124 94//124
f 106//125 105//125 108//125
f 93//126 86//126 106//126
f 102//127 101//127 106//127
f 94//128 108//128 82//128
f 108//129 107//129 97//129
f 96//130 112//130 85//130
f 112//131 111//131 103//131
f 87//34 88//34 104//34
f 101//34 102//34 104//34
f 82//36 97//36 81//36
f 100//36 97//36 99//36
